<svg id="Layer_2" data-name="Layer 2" xmlns="http://www.w3.org/2000/svg" viewBox="0 0 2759.81 1944.76"><defs><style>.cls-3{fill:#f5896a}.cls-4{fill:#f7bf6f}.cls-5{fill:#ed2124}.cls-7{fill:#f68e6f}.cls-8{fill:#f6b356}.cls-9{fill:#f04932}.cls-10{fill:#f04b34}.cls-11{fill:#f37657}.cls-12{fill:#f1583c}.cls-13{fill:#ed9f35}.cls-14{fill:#b9b5b4}.cls-15{fill:#ccc9c8}.cls-16{fill:#c6c3c2}.cls-17{fill:#dedcdb}.cls-18{fill:#dcdad9}.cls-19{fill:#c5c2c1}.cls-20{fill:#dc932f}.cls-21{fill:#d6d3d2}.cls-22{fill:#64666b}.cls-23{fill:#789d49}.cls-24{letter-spacing:0}.cls-27{fill:#fff;font-family:ProximaNova-Bold,&apos;Proxima Nova&apos;;font-size:77.04px;font-weight:700}.cls-28{letter-spacing:-.04em}</style></defs><g id="Layer_1-2" data-name="Layer 1"><path class="cls-23" d="M1844.9 683.94h839.07c41.86 0 75.85 33.99 75.85 75.85v162.27h-839.07c-41.86 0-75.85-33.99-75.85-75.85V683.94z"/><text class="cls-27" transform="translate(1950.15 774.69)"><tspan x="0" y="0">COMMUNI</tspan><tspan x="376.97" y="0" letter-spacing="0">C</tspan><tspan x="429.36" y="0" letter-spacing="-.06em">A</tspan><tspan x="477.13" y="0">TIONS</tspan><tspan x="194.49" y="92.45">OFFICER</tspan></text><path class="cls-15" d="M1963.92 648.38s22.21 20.01-5.37 49.3c-21.54 22.87-50.03 28.07-50.03 28.07s-6.34 10.98-15.38 8.54c0 0-60.29 32.71-78.1 38.08-17.81 5.37-70.78-9.52-87.38-35.63-16.59-26.12 15.38-41.49 23.19-53.21 7.81-11.72 9.03-8.05 9.03-47.59 0 0 15.62-36.12 42.96-59.07 27.34-22.94 54.92-27.82 71.51-20.26 0 0 13.18-.49 21.48 4.64 0 0 10.98 2.44 17.09 9.76 0 0 5.37 1.22 9.03 8.05 0 0 13.67 4.39 21.97 28.07 0 0 8.3 15.13 12.45 32.95 0 0 7.08 1.95 7.57 8.3z"/><path class="cls-19" d="M1750.85 683.53c7.81-11.72 9.03-8.05 9.03-47.59l.98 76.22c6.34 14.72 31.49 19.94 31.49 19.94 5.61-8.54 12.93-3.66 12.93-3.66 30.26 2.68 42.47 4.39 95.8-15.38s57.91-44.24 57.91-44.24l-1.79-28.45c1.88.74 6.34 3.01 6.73 8.01 0 0 22.21 20.01-5.37 49.3-21.54 22.87-50.03 28.07-50.03 28.07s-6.34 10.98-15.38 8.54c0 0-60.29 32.71-78.1 38.08-17.81 5.37-70.78-9.52-87.38-35.63-16.59-26.12 15.38-41.49 23.19-53.21z"/><path class="cls-14" d="M1943.9 607.13s-19.04-31.97-60.04-21.48c-41.01 10.5-73.22 47.84-83.23 74.93-10.01 27.09-5.61 57.84 4.64 67.85 0 0-6.59.73-12.93 3.66l.98-74.28s24.62-58.84 88.59-75.34c38.81-10.01 54.67 9.69 54.67 9.69s6.84 11.06 7.33 14.97z"/><path class="cls-18" d="M1921.94 579.06s-34.17-14.95-67.12.58-63.21 62.88-67.12 70.44l-8.3-3.91s23.7-56.34 63.94-76.15c31.24-15.38 52.48-8.79 52.48-8.79s11.53 2.26 17.09 9.76c0 0 6.01 1.83 9.03 8.05z"/><path class="cls-14" d="M1845.46 574.08c-35.36 16.91-57.75 62.4-62.84 73.62l-3.22-1.52s23.7-56.34 63.94-76.15c31.24-15.38 52.48-8.79 52.48-8.79s11.53 2.26 17.09 9.76c0 0-26.48-16.52-67.45 3.07z"/><path class="cls-18" d="M1874.34 556.61s-36.66 4.88-57.53 24.47c-20.87 19.59-44.29 61.11-44.29 61.11l-4.9-3.27s24.6-46.85 48.75-64.98c24.16-18.14 51.74-19.45 51.74-19.45l6.22 2.12z"/><path class="cls-14" d="M1817.25 576.08c-21.92 16.46-44.19 56.54-48.14 63.83l-1.48-.99s24.6-46.85 48.75-64.98c24.16-18.14 51.74-19.45 51.74-19.45l2.96 1.01c-7.38.93-33.33 5.19-53.83 20.58zM1873.82 556.43l.52.18s-.13.02-.38.05l-.14-.23z"/><path class="cls-16" d="M1838.38 737.31s2.65-2.01 3.94-7.32c0 0 .64-10.89-3.94-13.27l-5.13 12.54 5.13 8.05z"/><path class="cls-21" d="M1838.38 716.72s2.56 1.92 0 6.32c0 0-21.97 4.21-31.94 0 0 0-1.56-3.2.73-5.49l31.21-.82z"/><path class="cls-14" d="M1838.38 737.31v-14.28s-20.69.91-31.94 0v12.9s6.77 3.48 31.94 1.37zM1933.93 682.31l2.2 18.03s-8.42 8.7-28.92 15.29l-3.29-19.86 30.02-13.46z"/><path class="cls-16" d="M1907.2 715.62l-6.13-2.56-1.28-18.22 5.95 2.84 1.46 17.94z"/><path class="cls-21" d="M1925.97 680.29s-11.81 9.15-26.18 14.55l5.95 2.84s15.01-4.94 28.19-15.38c0 0-4.12-1.83-7.96-2.01z"/><path class="cls-14" d="M1964.09 670.35s2.68-13.77 0-21.8l-4.81 8.74 4.81 13.06z"/><path class="cls-21" d="M1956.35 640.08s1.65 5.55-.37 14.83c0 0 3.3.43 6.77 1.34 0 0 5.68-13.18-6.41-16.17z"/><path class="cls-16" d="M1955.99 654.91s2.81 10.31 2.99 13.91l5.11 1.53s.62-10.19-1.33-14.1l-6.77-1.34z"/><path class="cls-17" d="M1726.58 709.79c-4.74 13.38-.31 30.05 29.88 45.37 36.79 18.67 50.34 13 57.66 11.35 7.32-1.65 61.14-30.02 114.77-55.46 53.62-25.44 37.25-60.17 37.24-60.19 4.85 6.2 14.29 23.6-7.59 46.82-21.54 22.87-50.03 28.07-50.03 28.07s-6.34 10.98-15.38 8.54c0 0-60.29 32.71-78.1 38.08-17.81 5.37-70.78-9.52-87.38-35.63-6.73-10.59-5.47-19.41-1.08-26.94z"/><path class="cls-21" d="M1760.72 696.04l-5.91-1.28s-.29-8.11 0-10.8c.23-2.13 1.37-6.13 5.67-6.41l.23 18.49z"/><path class="cls-14" d="M1760.72 701.89l-5.91-1.28v-10.8s1.37-6.13 5.67-6.41l.23 18.49z"/><g><path class="cls-23" d="M976.13 130.64h839.07c41.86 0 75.85 33.99 75.85 75.85v162.27h-839.07c-41.86 0-75.85-33.99-75.85-75.85V130.64z"/><text class="cls-27" transform="translate(1323.95 221.39)"><tspan x="0" y="0">CHIEF</tspan><tspan class="cls-28" x="-53.35" y="92.45">W</tspan><tspan class="cls-24" x="13.98" y="92.45">ARDEN</tspan></text><path class="cls-15" d="M1095.15 95.08s22.21 20.01-5.37 49.3c-21.54 22.87-50.03 28.07-50.03 28.07s-6.34 10.98-15.38 8.54c0 0-60.29 32.71-78.1 38.08-17.81 5.37-70.78-9.52-87.38-35.63-16.59-26.12 15.38-41.49 23.19-53.21 7.81-11.72 9.03-8.05 9.03-47.59 0 0 15.62-36.12 42.96-59.07C961.41.63 988.99-4.25 1005.58 3.31c0 0 13.18-.49 21.48 4.64 0 0 10.98 2.44 17.09 9.76 0 0 5.37 1.22 9.03 8.05 0 0 13.67 4.39 21.97 28.07 0 0 8.3 15.13 12.45 32.95 0 0 7.08 1.95 7.57 8.3z"/><path class="cls-19" d="M882.08 130.22c7.81-11.72 9.03-8.05 9.03-47.59l.98 76.22c6.34 14.72 31.49 19.94 31.49 19.94 5.61-8.54 12.93-3.66 12.93-3.66 30.26 2.68 42.47 4.39 95.8-15.38s57.91-44.24 57.91-44.24l-1.79-28.45c1.88.74 6.34 3.01 6.73 8.01 0 0 22.21 20.01-5.37 49.3-21.54 22.87-50.03 28.07-50.03 28.07s-6.34 10.98-15.38 8.54c0 0-60.29 32.71-78.1 38.08-17.81 5.37-70.78-9.52-87.38-35.63-16.59-26.12 15.38-41.49 23.19-53.21z"/><path class="cls-14" d="M1075.13 53.83s-19.04-31.97-60.04-21.48c-41.01 10.5-73.22 47.84-83.23 74.93-10.01 27.09-5.61 57.84 4.64 67.85 0 0-6.59.73-12.93 3.66l.98-74.28s24.62-58.84 88.59-75.34c38.81-10.01 54.67 9.69 54.67 9.69s6.84 11.06 7.33 14.97z"/><path class="cls-18" d="M1053.17 25.76s-34.17-14.95-67.12.58-63.21 62.88-67.12 70.44l-8.3-3.91s23.7-56.34 63.94-76.15c31.24-15.38 52.48-8.79 52.48-8.79s11.53 2.26 17.09 9.76c0 0 6.01 1.83 9.03 8.05z"/><path class="cls-14" d="M976.69 20.77c-35.36 16.91-57.75 62.4-62.84 73.62l-3.22-1.52s23.7-56.34 63.94-76.15c31.24-15.38 52.48-8.79 52.48-8.79s11.53 2.26 17.09 9.76c0 0-26.48-16.52-67.45 3.07z"/><path class="cls-18" d="M1005.58 3.31s-36.66 4.88-57.53 24.47c-20.87 19.59-44.29 61.11-44.29 61.11l-4.9-3.27s24.6-46.85 48.75-64.98C971.77 2.5 999.35 1.19 999.35 1.19l6.22 2.12z"/><path class="cls-14" d="M948.48 22.77c-21.92 16.46-44.19 56.54-48.14 63.83l-1.48-.99s24.6-46.85 48.75-64.98c24.16-18.14 51.74-19.45 51.74-19.45l2.96 1.01c-7.38.93-33.33 5.19-53.83 20.58zM1005.06 3.13l.52.18s-.13.02-.38.05l-.14-.23z"/><path class="cls-16" d="M969.61 184.01s2.65-2.01 3.94-7.32c0 0 .64-10.89-3.94-13.27l-5.13 12.54 5.13 8.05z"/><path class="cls-21" d="M969.61 163.42s2.56 1.92 0 6.32c0 0-21.97 4.21-31.94 0 0 0-1.56-3.2.73-5.49l31.21-.82z"/><path class="cls-14" d="M969.61 184.01v-14.28s-20.69.91-31.94 0v12.9s6.77 3.48 31.94 1.37zM1065.16 129l2.2 18.03s-8.42 8.7-28.92 15.29l-3.29-19.86 30.02-13.46z"/><path class="cls-16" d="M1038.43 162.32l-6.13-2.56-1.28-18.22 5.95 2.84 1.46 17.94z"/><path class="cls-21" d="M1057.2 126.99s-11.81 9.15-26.18 14.55l5.95 2.84s15.01-4.94 28.19-15.38c0 0-4.12-1.83-7.96-2.01z"/><path class="cls-14" d="M1095.32 117.04s2.68-13.77 0-21.8l-4.81 8.74 4.81 13.06z"/><path class="cls-21" d="M1087.58 86.78s1.65 5.55-.37 14.83c0 0 3.3.43 6.77 1.34 0 0 5.68-13.18-6.41-16.17z"/><path class="cls-16" d="M1087.22 101.6s2.81 10.31 2.99 13.91l5.11 1.53s.62-10.19-1.33-14.1l-6.77-1.34z"/><path class="cls-17" d="M857.81 156.49c-4.74 13.38-.31 30.05 29.88 45.37 36.79 18.67 50.34 13 57.66 11.35 7.32-1.65 61.14-30.02 114.77-55.46 53.62-25.44 37.25-60.17 37.24-60.19 4.85 6.2 14.29 23.6-7.59 46.82-21.54 22.87-50.03 28.07-50.03 28.07s-6.34 10.98-15.38 8.54c0 0-60.29 32.71-78.1 38.08-17.81 5.37-70.78-9.52-87.38-35.63-6.73-10.59-5.47-19.41-1.08-26.94z"/><path class="cls-21" d="M891.95 142.73l-5.91-1.28s-.29-8.11 0-10.8c.23-2.13 1.37-6.13 5.67-6.41l.23 18.49z"/><path class="cls-14" d="M891.95 148.59l-5.91-1.28v-10.8s1.37-6.13 5.67-6.41l.23 18.49z"/></g><g><path class="cls-23" d="M121.95 668.71h839.07c41.86 0 75.85 33.99 75.85 75.85v162.27H197.79c-41.86 0-75.85-33.99-75.85-75.85V668.71z"/><text class="cls-27" transform="translate(310.45 759.46)"><tspan x="0" y="0">DEPUTY CHIEF</tspan><tspan class="cls-28" x="105.97" y="92.45">W</tspan><tspan class="cls-24" x="173.31" y="92.45">ARDEN</tspan></text><path class="cls-15" d="M240.97 633.15s22.21 20.01-5.37 49.3c-21.54 22.87-50.03 28.07-50.03 28.07s-6.34 10.98-15.38 8.54c0 0-60.29 32.71-78.1 38.08-17.81 5.37-70.78-9.52-87.38-35.63-16.59-26.12 15.38-41.49 23.19-53.21 7.81-11.72 9.03-8.05 9.03-47.59 0 0 15.62-36.12 42.96-59.07 27.34-22.94 54.92-27.82 71.51-20.26 0 0 13.18-.49 21.48 4.64 0 0 10.98 2.44 17.09 9.76 0 0 5.37 1.22 9.03 8.05 0 0 13.67 4.39 21.97 28.07 0 0 8.3 15.13 12.45 32.95 0 0 7.08 1.95 7.57 8.3z"/><path class="cls-19" d="M27.9 668.3c7.81-11.72 9.03-8.05 9.03-47.59l.98 76.22c6.34 14.72 31.49 19.94 31.49 19.94 5.61-8.54 12.93-3.66 12.93-3.66 30.26 2.68 42.47 4.39 95.8-15.38s57.91-44.24 57.91-44.24l-1.79-28.45c1.88.74 6.34 3.01 6.73 8.01 0 0 22.21 20.01-5.37 49.3-21.54 22.87-50.03 28.07-50.03 28.07s-6.34 10.98-15.38 8.54c0 0-60.29 32.71-78.1 38.08-17.81 5.37-70.78-9.52-87.38-35.63-16.59-26.12 15.38-41.49 23.19-53.21z"/><path class="cls-14" d="M220.96 591.9s-19.04-31.97-60.04-21.48c-41.01 10.5-73.22 47.84-83.23 74.93-10.01 27.09-5.61 57.84 4.64 67.85 0 0-6.59.73-12.93 3.66l.98-74.28s24.62-58.84 88.59-75.34c38.81-10.01 54.67 9.69 54.67 9.69s6.84 11.06 7.33 14.97z"/><path class="cls-18" d="M198.99 563.84s-34.17-14.95-67.12.58-63.21 62.88-67.12 70.44l-8.3-3.91s23.7-56.34 63.94-76.15c31.24-15.38 52.48-8.79 52.48-8.79s11.53 2.26 17.09 9.76c0 0 6.01 1.83 9.03 8.05z"/><path class="cls-14" d="M122.51 558.85c-35.36 16.91-57.75 62.4-62.84 73.62l-3.22-1.52s23.7-56.34 63.94-76.15c31.24-15.38 52.48-8.79 52.48-8.79s11.53 2.26 17.09 9.76c0 0-26.48-16.52-67.45 3.07z"/><path class="cls-18" d="M151.4 541.38s-36.66 4.88-57.53 24.47C73 585.44 49.58 626.96 49.58 626.96l-4.9-3.27s24.6-46.85 48.75-64.98c24.16-18.14 51.74-19.45 51.74-19.45l6.22 2.12z"/><path class="cls-14" d="M94.3 560.85c-21.92 16.46-44.19 56.54-48.14 63.83l-1.48-.99s24.6-46.85 48.75-64.98c24.16-18.14 51.74-19.45 51.74-19.45l2.96 1.01c-7.38.93-33.33 5.19-53.83 20.58zM150.88 541.2l.52.18s-.13.02-.38.05l-.14-.23z"/><path class="cls-16" d="M115.43 722.08s2.65-2.01 3.94-7.32c0 0 .64-10.89-3.94-13.27l-5.13 12.54 5.13 8.05z"/><path class="cls-21" d="M115.43 701.49s2.56 1.92 0 6.32c0 0-21.97 4.21-31.94 0 0 0-1.56-3.2.73-5.49l31.21-.82z"/><path class="cls-14" d="M115.43 722.08V707.8s-20.69.91-31.94 0v12.9s6.77 3.48 31.94 1.37zM210.98 667.08l2.2 18.03s-8.42 8.7-28.92 15.29l-3.29-19.86 30.02-13.46z"/><path class="cls-16" d="M184.26 700.39l-6.14-2.56-1.28-18.21 5.95 2.83 1.47 17.94z"/><path class="cls-21" d="M203.02 665.06s-11.81 9.15-26.18 14.55l5.95 2.84s15.01-4.94 28.19-15.38c0 0-4.12-1.83-7.96-2.01z"/><path class="cls-14" d="M241.14 655.12s2.68-13.77 0-21.8l-4.81 8.74 4.81 13.06z"/><path class="cls-21" d="M233.4 624.85s1.65 5.55-.37 14.83c0 0 3.3.43 6.77 1.34 0 0 5.68-13.18-6.41-16.17z"/><path class="cls-16" d="M233.04 639.68s2.81 10.31 2.99 13.91l5.11 1.53s.62-10.19-1.33-14.1l-6.77-1.34z"/><path class="cls-17" d="M3.63 694.56c-4.74 13.38-.31 30.05 29.88 45.37 36.79 18.67 50.34 13 57.66 11.35 7.32-1.65 61.14-30.02 114.77-55.46 53.62-25.44 37.25-60.17 37.24-60.19 4.85 6.2 14.29 23.6-7.59 46.82-21.54 22.87-50.03 28.07-50.03 28.07s-6.34 10.98-15.38 8.54c0 0-60.29 32.71-78.1 38.08-17.81 5.37-70.78-9.52-87.38-35.63-6.73-10.59-5.47-19.41-1.08-26.94z"/><path class="cls-21" d="M37.77 680.81l-5.91-1.28s-.29-8.11 0-10.8c.23-2.13 1.37-6.13 5.67-6.41l.23 18.49z"/><path class="cls-14" d="M37.77 686.67l-5.91-1.28v-10.8s1.37-6.13 5.67-6.41l.23 18.49z"/></g><g><path class="cls-23" d="M976.13 1164.39h839.07c41.86 0 75.85 33.99 75.85 75.85v162.27h-839.07c-41.86 0-75.85-33.99-75.85-75.85v-162.27z"/><text class="cls-27" transform="translate(1196.18 1255.14)"><tspan x="0" y="0">F</tspan><tspan x="43.99" y="0" letter-spacing="-.03em">L</tspan><tspan x="82.21" y="0">OOR/AREA</tspan><tspan class="cls-28" x="74.42" y="92.45">W</tspan><tspan class="cls-24" x="141.76" y="92.45">ARDEN</tspan></text><path d="M1095.15 1128.83s22.21 20.01-5.37 49.3c-21.54 22.87-50.03 28.07-50.03 28.07s-6.34 10.98-15.38 8.54c0 0-60.29 32.71-78.1 38.08-17.81 5.37-70.78-9.52-87.38-35.63-16.59-26.12 15.38-41.49 23.19-53.21 7.81-11.72 9.03-8.05 9.03-47.59 0 0 15.62-36.12 42.96-59.07 27.34-22.94 54.92-27.82 71.51-20.26 0 0 13.18-.49 21.48 4.64 0 0 10.98 2.44 17.09 9.76 0 0 5.37 1.22 9.03 8.05 0 0 13.67 4.39 21.97 28.07 0 0 8.3 15.13 12.45 32.95 0 0 7.08 1.95 7.57 8.3z" fill="#f3a436"/><path d="M882.08 1163.98c7.81-11.72 9.03-8.05 9.03-47.59l.98 76.22c6.34 14.72 31.49 19.94 31.49 19.94 5.61-8.54 12.93-3.66 12.93-3.66 30.26 2.68 42.47 4.39 95.8-15.38s57.91-44.24 57.91-44.24l-1.79-28.45c1.88.74 6.34 3.01 6.73 8.01 0 0 22.21 20.01-5.37 49.3-21.54 22.87-50.03 28.07-50.03 28.07s-6.34 10.98-15.38 8.54c0 0-60.29 32.71-78.1 38.08-17.81 5.37-70.78-9.52-87.38-35.63-16.59-26.12 15.38-41.49 23.19-53.21z" fill="#eb9e35"/><path class="cls-20" d="M1075.13 1087.58s-19.04-31.97-60.04-21.48c-41.01 10.5-73.22 47.84-83.23 74.93-10.01 27.09-5.61 57.84 4.64 67.85 0 0-6.59.73-12.93 3.66l.98-74.28s24.62-58.84 88.59-75.34c38.81-10.01 54.67 9.69 54.67 9.69s6.84 11.06 7.33 14.97z"/><path class="cls-4" d="M1053.17 1059.51s-34.17-14.95-67.12.58-63.21 62.88-67.12 70.44l-8.3-3.91s23.7-56.34 63.94-76.15c31.24-15.38 52.48-8.79 52.48-8.79s11.53 2.26 17.09 9.76c0 0 6.01 1.83 9.03 8.05z"/><path class="cls-20" d="M976.69 1054.53c-35.36 16.91-57.75 62.4-62.84 73.62l-3.22-1.52s23.7-56.34 63.94-76.15c31.24-15.38 52.48-8.79 52.48-8.79s11.53 2.26 17.09 9.76c0 0-26.48-16.52-67.45 3.07z"/><path class="cls-4" d="M1005.58 1037.06s-36.66 4.88-57.53 24.47c-20.87 19.59-44.29 61.11-44.29 61.11l-4.9-3.27s24.6-46.85 48.75-64.98c24.16-18.14 51.74-19.45 51.74-19.45l6.22 2.12z"/><path class="cls-20" d="M948.48 1056.53c-21.92 16.46-44.19 56.54-48.14 63.83l-1.48-.99s24.6-46.85 48.75-64.98c24.16-18.14 51.74-19.45 51.74-19.45l2.96 1.01c-7.38.93-33.33 5.19-53.83 20.58zM1005.06 1036.88l.52.18s-.13.02-.38.05l-.14-.23z"/><path class="cls-13" d="M969.61 1217.76s2.65-2.01 3.94-7.32c0 0 .64-10.89-3.94-13.27l-5.13 12.54 5.13 8.05z"/><path class="cls-8" d="M969.61 1197.17s2.56 1.92 0 6.32c0 0-21.97 4.21-31.94 0 0 0-1.56-3.2.73-5.49l31.21-.82z"/><path class="cls-20" d="M969.61 1217.76v-14.28s-20.69.91-31.94 0v12.9s6.77 3.48 31.94 1.37zM1065.16 1162.76l2.2 18.03s-8.42 8.7-28.92 15.29l-3.29-19.86 30.02-13.46z"/><path class="cls-13" d="M1038.43 1196.07l-6.13-2.56-1.28-18.22 5.95 2.84 1.46 17.94z"/><path class="cls-8" d="M1057.2 1160.74s-11.81 9.15-26.18 14.55l5.95 2.84s15.01-4.94 28.19-15.38c0 0-4.12-1.83-7.96-2.01z"/><path class="cls-20" d="M1095.32 1150.8s2.68-13.77 0-21.8l-4.81 8.74 4.81 13.06z"/><path class="cls-8" d="M1087.58 1120.53s1.65 5.55-.37 14.83c0 0 3.3.43 6.77 1.34 0 0 5.68-13.18-6.41-16.17z"/><path class="cls-13" d="M1087.22 1135.36s2.81 10.31 2.99 13.91l5.11 1.53s.62-10.19-1.33-14.1l-6.77-1.34z"/><path d="M857.81 1190.24c-4.74 13.38-.31 30.05 29.88 45.37 36.79 18.67 50.34 13 57.66 11.35 7.32-1.65 61.14-30.02 114.77-55.46 53.62-25.44 37.25-60.17 37.24-60.19 4.85 6.2 14.29 23.6-7.59 46.82-21.54 22.87-50.03 28.07-50.03 28.07s-6.34 10.98-15.38 8.54c0 0-60.29 32.71-78.1 38.08-17.81 5.37-70.78-9.52-87.38-35.63-6.73-10.59-5.47-19.41-1.08-26.94z" fill="#f8c278"/><path class="cls-8" d="M891.95 1176.49l-5.91-1.28s-.29-8.11 0-10.8c.23-2.13 1.37-6.13 5.67-6.41l.23 18.49z"/><path class="cls-20" d="M891.95 1182.34l-5.91-1.28v-10.8s1.37-6.13 5.67-6.41l.23 18.49z"/></g><g><path class="cls-23" d="M298.79 1706.11h839.07c41.86 0 75.85 33.99 75.85 75.85v162.27H374.63c-41.86 0-75.85-33.99-75.85-75.85v-162.27z"/><text class="cls-27" transform="translate(593.26 1843.08)"><tspan class="cls-28" x="0" y="0">W</tspan><tspan class="cls-24" x="67.34" y="0">ARDEN</tspan></text><path class="cls-12" d="M417.81 1670.99s22.21 20.01-5.37 49.3c-21.54 22.87-50.03 28.07-50.03 28.07s-6.34 10.98-15.38 8.54c0 0-60.29 32.71-78.1 38.08-17.81 5.37-70.78-9.52-87.38-35.63-16.59-26.12 15.38-41.49 23.19-53.21 7.81-11.72 9.03-8.05 9.03-47.59 0 0 15.62-36.12 42.96-59.07 27.34-22.94 54.92-27.82 71.51-20.26 0 0 13.18-.49 21.48 4.64 0 0 10.98 2.44 17.09 9.76 0 0 5.37 1.22 9.03 8.05 0 0 13.67 4.39 21.97 28.07 0 0 8.3 15.13 12.45 32.95 0 0 7.08 1.95 7.57 8.3z"/><path class="cls-9" d="M204.74 1706.14c7.81-11.72 9.03-8.05 9.03-47.59l.98 76.22c6.34 14.72 31.49 19.94 31.49 19.94 5.61-8.54 12.93-3.66 12.93-3.66 30.26 2.68 42.47 4.39 95.8-15.38s57.91-44.24 57.91-44.24l-1.79-28.45c1.88.74 6.34 3.01 6.73 8.01 0 0 22.21 20.01-5.37 49.3-21.54 22.87-50.03 28.07-50.03 28.07s-6.34 10.98-15.38 8.54c0 0-60.29 32.71-78.1 38.08-17.81 5.37-70.78-9.52-87.38-35.63-16.59-26.12 15.38-41.49 23.19-53.21z"/><path class="cls-5" d="M397.8 1629.74s-19.04-31.97-60.04-21.48c-41.01 10.5-73.22 47.84-83.23 74.93-10.01 27.09-5.61 57.84 4.64 67.85 0 0-6.59.73-12.93 3.66l.98-74.28s24.62-58.84 88.59-75.34c38.81-10.01 54.67 9.69 54.67 9.69s6.84 11.06 7.33 14.97z"/><path class="cls-3" d="M375.83 1601.67s-34.17-14.95-67.12.58-63.21 62.88-67.12 70.44l-8.3-3.91s23.7-56.34 63.94-76.15c31.24-15.38 52.48-8.79 52.48-8.79s11.53 2.26 17.09 9.76c0 0 6.01 1.83 9.03 8.05z"/><path class="cls-5" d="M299.35 1596.69c-35.36 16.91-57.75 62.4-62.84 73.62l-3.22-1.52s23.7-56.34 63.94-76.15c31.24-15.38 52.48-8.79 52.48-8.79s11.53 2.26 17.09 9.76c0 0-26.48-16.52-67.45 3.07z"/><path class="cls-3" d="M328.24 1579.22s-36.66 4.88-57.53 24.47c-20.87 19.59-44.29 61.11-44.29 61.11l-4.9-3.27s24.6-46.85 48.75-64.98c24.16-18.14 51.74-19.45 51.74-19.45l6.22 2.12z"/><path class="cls-5" d="M271.14 1598.69c-21.92 16.46-44.19 56.54-48.14 63.83l-1.48-.99s24.6-46.85 48.75-64.98c24.16-18.14 51.74-19.45 51.74-19.45l2.96 1.01c-7.38.93-33.33 5.19-53.83 20.58zM327.72 1579.04l.52.18s-.13.02-.38.05l-.14-.23z"/><path class="cls-10" d="M292.27 1759.92s2.65-2.01 3.94-7.32c0 0 .64-10.89-3.94-13.27l-5.13 12.54 5.13 8.05z"/><path class="cls-11" d="M292.27 1739.33s2.56 1.92 0 6.32c0 0-21.97 4.21-31.94 0 0 0-1.56-3.2.73-5.49l31.21-.82z"/><path class="cls-5" d="M292.27 1759.92v-14.28s-20.69.91-31.94 0v12.9s6.77 3.48 31.94 1.37zM387.82 1704.92l2.2 18.03s-8.42 8.7-28.92 15.29l-3.29-19.86 30.02-13.46z"/><path class="cls-10" d="M361.1 1738.23l-6.14-2.56-1.28-18.22 5.95 2.84 1.47 17.94z"/><path class="cls-11" d="M379.86 1702.9s-11.81 9.15-26.18 14.55l5.95 2.84s15.01-4.94 28.19-15.38c0 0-4.12-1.83-7.96-2.01z"/><path class="cls-5" d="M417.98 1692.96s2.68-13.77 0-21.8l-4.81 8.74 4.81 13.06z"/><path class="cls-11" d="M410.24 1662.69s1.65 5.55-.37 14.83c0 0 3.3.43 6.77 1.34 0 0 5.68-13.18-6.41-16.17z"/><path class="cls-10" d="M409.88 1677.52s2.81 10.31 2.99 13.91l5.11 1.53s.62-10.19-1.33-14.1l-6.77-1.34z"/><path class="cls-7" d="M180.47 1732.4c-4.74 13.38-.31 30.05 29.88 45.37 36.79 18.67 50.34 13 57.66 11.35 7.32-1.65 61.14-30.02 114.77-55.46 53.62-25.44 37.25-60.17 37.24-60.19 4.85 6.2 14.29 23.6-7.59 46.82-21.54 22.87-50.03 28.07-50.03 28.07s-6.34 10.98-15.38 8.54c0 0-60.29 32.71-78.1 38.08-17.81 5.37-70.78-9.52-87.38-35.63-6.73-10.59-5.47-19.41-1.08-26.94z"/><path class="cls-11" d="M214.61 1718.65l-5.91-1.28s-.29-8.11 0-10.8c.23-2.13 1.37-6.13 5.67-6.41l.23 18.49z"/><path class="cls-5" d="M214.61 1724.5l-5.91-1.28v-10.8s1.37-6.13 5.67-6.41l.23 18.49z"/></g><g><path class="cls-23" d="M1708.98 1706.64h839.07c41.86 0 75.85 33.99 75.85 75.85v162.27h-839.07c-41.86 0-75.85-33.99-75.85-75.85v-162.27z"/><text class="cls-27" transform="translate(2003.45 1843.61)"><tspan class="cls-28" x="0" y="0">W</tspan><tspan class="cls-24" x="67.34" y="0">ARDEN</tspan></text><path class="cls-12" d="M1828 1671.52s22.21 20.01-5.37 49.3c-21.54 22.87-50.03 28.07-50.03 28.07s-6.34 10.98-15.38 8.54c0 0-60.29 32.71-78.1 38.08-17.81 5.37-46.94-9.52-63.53-35.63-16.59-26.12-8.47-41.49-.66-53.21 7.81-11.72 9.03-8.05 9.03-47.59 0 0 15.62-36.12 42.96-59.07 27.34-22.94 54.92-27.82 71.51-20.26 0 0 13.18-.49 21.48 4.64 0 0 10.98 2.44 17.09 9.76 0 0 5.37 1.22 9.03 8.05 0 0 13.67 4.39 21.97 28.07 0 0 8.3 15.13 12.45 32.95 0 0 7.08 1.95 7.57 8.3z"/><path class="cls-9" d="M1614.93 1706.66c7.81-11.72 9.03-8.05 9.03-47.59l.98 76.22c6.34 14.72 31.49 19.94 31.49 19.94 5.61-8.54 12.93-3.66 12.93-3.66 30.26 2.68 42.47 4.39 95.8-15.38s57.91-44.24 57.91-44.24l-1.79-28.45c1.88.74 6.34 3.01 6.73 8.01 0 0 22.21 20.01-5.37 49.3-21.54 22.87-50.03 28.07-50.03 28.07s-6.34 10.98-15.38 8.54c0 0-60.29 32.71-78.1 38.08-17.81 5.37-46.94-9.52-63.53-35.63-16.59-26.12-8.47-41.49-.66-53.21z"/><path class="cls-5" d="M1807.99 1630.27s-19.04-31.97-60.04-21.48c-41.01 10.5-73.22 47.84-83.23 74.93-10.01 27.09-5.61 57.84 4.64 67.85 0 0-6.59.73-12.93 3.66l.98-74.28s24.62-58.84 88.59-75.34c38.81-10.01 54.67 9.69 54.67 9.69s6.84 11.06 7.33 14.97z"/><path class="cls-3" d="M1786.02 1602.2s-34.17-14.95-67.12.58-63.21 62.88-67.12 70.44l-8.3-3.91s23.7-56.34 63.94-76.15c31.24-15.38 52.48-8.79 52.48-8.79s11.53 2.26 17.09 9.76c0 0 6.01 1.83 9.03 8.05z"/><path class="cls-5" d="M1709.54 1597.22c-35.36 16.91-57.75 62.4-62.84 73.62l-3.22-1.52s23.7-56.34 63.94-76.15c31.24-15.38 52.48-8.79 52.48-8.79s11.53 2.26 17.09 9.76c0 0-26.48-16.52-67.45 3.07z"/><path class="cls-3" d="M1738.43 1579.75s-36.66 4.88-57.53 24.47c-20.87 19.59-44.29 61.11-44.29 61.11l-4.9-3.27s24.6-46.85 48.75-64.98c24.16-18.14 51.74-19.45 51.74-19.45l6.22 2.12z"/><path class="cls-5" d="M1681.33 1599.22c-21.92 16.46-44.19 56.54-48.14 63.83l-1.48-.99s24.6-46.85 48.75-64.98c24.16-18.14 51.74-19.45 51.74-19.45l2.96 1.01c-7.38.93-33.33 5.19-53.83 20.58zM1737.91 1579.57l.52.18s-.13.02-.38.05l-.14-.23z"/><path class="cls-10" d="M1702.46 1760.45s2.65-2.01 3.94-7.32c0 0 .64-10.89-3.94-13.27l-5.13 12.54 5.13 8.05z"/><path class="cls-11" d="M1702.46 1739.86s2.56 1.92 0 6.32c0 0-21.97 4.21-31.94 0 0 0-1.56-3.2.73-5.49l31.21-.82z"/><path class="cls-5" d="M1702.46 1760.45v-14.28s-20.69.91-31.94 0v12.9s6.77 3.48 31.94 1.37zM1798.01 1705.44l2.2 18.03s-8.42 8.7-28.92 15.29l-3.29-19.86 30.02-13.46z"/><path class="cls-10" d="M1771.29 1738.76l-6.13-2.56-1.29-18.22 5.95 2.84 1.47 17.94z"/><path class="cls-11" d="M1790.05 1703.43s-11.81 9.15-26.18 14.55l5.95 2.84s15.01-4.94 28.19-15.38c0 0-4.12-1.83-7.96-2.01z"/><path class="cls-5" d="M1828.18 1693.49s2.68-13.77 0-21.8l-4.81 8.74 4.81 13.06z"/><path class="cls-11" d="M1820.44 1663.22s1.65 5.55-.37 14.83c0 0 3.3.43 6.77 1.34 0 0 5.68-13.18-6.41-16.17z"/><path class="cls-10" d="M1820.07 1678.05s2.81 10.31 2.99 13.91l5.11 1.53s.62-10.19-1.33-14.1l-6.77-1.34z"/><path class="cls-7" d="M1614.51 1732.93c-4.74 13.38-24.15 30.05 6.04 45.37 36.79 18.67 50.34 13 57.66 11.35 7.32-1.65 61.14-30.02 114.77-55.46 53.62-25.44 37.25-60.17 37.24-60.19 4.85 6.2 14.29 23.6-7.59 46.82-21.54 22.87-50.03 28.07-50.03 28.07s-6.34 10.98-15.38 8.54c0 0-60.29 32.71-78.1 38.08-17.81 5.37-46.94-9.52-63.53-35.63-6.73-10.59-5.47-19.41-1.08-26.94z"/><path class="cls-11" d="M1624.8 1719.18l-5.91-1.28s-.29-8.11 0-10.8c.23-2.13 1.37-6.13 5.67-6.41l.23 18.49z"/><path class="cls-5" d="M1624.8 1725.03l-5.91-1.28v-10.8s1.37-6.13 5.67-6.41l.23 18.49z"/></g><g><path class="cls-22" d="M2017.91 332.11c1.9 0 3.82-.68 5.34-2.05 3.28-2.95 3.55-8.01.59-11.29l-30.87-34.3c92.7-2.78 163.94 20.45 211.87 69.12 16.72 16.98 30.62 37.16 41.3 59.97 8.6 18.36 15.16 38.47 19.49 59.77 7.42 36.49 5.69 64.15 5.68 64.42-.3 4.4 3.03 8.21 7.43 8.51a7.996 7.996 0 0 0 8.52-7.43c.08-1.19 1.9-29.67-5.85-68.12-4.55-22.6-11.48-43.98-20.61-63.54-11.46-24.57-26.41-46.33-44.45-64.67-50.39-51.24-124.13-76.14-219.35-74.11l28.8-25.92c3.28-2.95 3.55-8.01.59-11.29-2.95-3.28-8.01-3.55-11.29-.59l-44.97 40.47a7.96 7.96 0 0 0-2.63 5.52c-.11 2.12.62 4.19 2.04 5.77l42.41 47.13a7.996 7.996 0 0 0 5.94 2.65z"/><path class="cls-22" d="M2223.45 537.65c0-1.9.68-3.82 2.05-5.34 2.95-3.28 8.01-3.55 11.29-.59l34.3 30.87c2.78-92.7-20.45-163.94-69.12-211.87-16.98-16.72-37.16-30.62-59.97-41.3-18.36-8.6-38.47-15.16-59.77-19.49-36.49-7.42-64.15-5.69-64.42-5.68-4.4.3-8.21-3.03-8.51-7.43a7.996 7.996 0 0 1 7.43-8.52c1.19-.08 29.67-1.9 68.12 5.85 22.6 4.55 43.98 11.48 63.54 20.61 24.57 11.46 46.33 26.41 64.67 44.45 51.24 50.39 76.14 124.13 74.11 219.35l25.92-28.8c2.95-3.28 8.01-3.55 11.29-.59 3.28 2.95 3.55 8.01.59 11.29l-40.47 44.97a7.96 7.96 0 0 1-5.52 2.63c-2.12.11-4.19-.62-5.77-2.04l-47.13-42.41a7.996 7.996 0 0 1-2.65-5.94z"/></g><g><path class="cls-22" d="M661.11 537.65c0-1.9-.68-3.82-2.05-5.34-2.95-3.28-8.01-3.55-11.29-.59l-34.3 30.87c-2.78-92.7 20.45-163.94 69.12-211.87 16.98-16.72 37.16-30.62 59.97-41.3 18.36-8.6 38.47-15.16 59.77-19.49 36.49-7.42 64.15-5.69 64.42-5.68 4.4.3 8.21-3.03 8.51-7.43a7.996 7.996 0 0 0-7.43-8.52c-1.19-.08-29.67-1.9-68.12 5.85-22.6 4.55-43.98 11.48-63.54 20.61-24.57 11.46-46.33 26.41-64.67 44.45-51.24 50.39-76.14 124.13-74.11 219.35l-25.92-28.8c-2.95-3.28-8.01-3.55-11.29-.59-3.28 2.95-3.55 8.01-.59 11.29l40.47 44.97a7.96 7.96 0 0 0 5.52 2.63c2.12.11 4.19-.62 5.77-2.04l47.13-42.41a7.996 7.996 0 0 0 2.65-5.94z"/><path class="cls-22" d="M866.66 332.11c-1.9 0-3.82-.68-5.34-2.05-3.28-2.95-3.55-8.01-.59-11.29l30.87-34.3c-92.7-2.78-163.94 20.45-211.87 69.12-16.72 16.98-30.62 37.16-41.3 59.97-8.6 18.36-15.16 38.47-19.49 59.77-7.42 36.49-5.69 64.15-5.68 64.42.3 4.4-3.03 8.21-7.43 8.51a7.996 7.996 0 0 1-8.52-7.43c-.08-1.19-1.9-29.67 5.85-68.12 4.55-22.6 11.48-43.98 20.61-63.54 11.46-24.57 26.41-46.33 44.45-64.67 50.39-51.24 124.13-76.14 219.35-74.11l-28.8-25.92c-3.28-2.95-3.55-8.01-.59-11.29 2.95-3.28 8.01-3.55 11.29-.59l44.97 40.47a7.96 7.96 0 0 1 2.63 5.52c.11 2.12-.62 4.19-2.04 5.77l-42.41 47.13a7.996 7.996 0 0 1-5.94 2.65z"/></g><path class="cls-22" d="M1427.08 720.31v365.7l-28.48-28.48c-3.12-3.12-8.41-3.3-11.46-.1-1.44 1.51-2.16 3.46-2.16 5.4s.77 4.01 2.3 5.54l41.39 41.39a7.821 7.821 0 0 0 5.89 2.28c.37.02.75.01 1.12-.02.12-.01.23-.03.34-.05l.41-.06.39-.09.36-.09c.13-.04.25-.09.37-.13.12-.04.24-.08.35-.13.12-.05.23-.1.34-.16.12-.06.24-.11.36-.17.11-.06.21-.12.32-.19.11-.07.23-.13.34-.21.12-.08.23-.16.34-.25.09-.07.19-.13.28-.21.2-.16.39-.34.57-.52l39.26-39.26c3.05-3.05 3.37-8.07.4-11.19s-8.12-3.26-11.23-.15l-26.14 26.14V720.03c0-4.5-3.79-8.12-8.36-7.82-4.17.27-7.32 3.91-7.32 8.09z"/><path class="cls-22" d="M1442.91 896.52V452.57l28.48 28.48c3.12 3.12 8.41 3.3 11.46.1 1.44-1.51 2.16-3.46 2.16-5.4s-.77-4.01-2.3-5.54l-41.39-41.39a7.821 7.821 0 0 0-5.89-2.28c-.37-.02-.75-.01-1.12.02-.12.01-.23.03-.34.05l-.41.06-.39.09-.36.09c-.13.04-.25.09-.37.13-.12.04-.24.08-.35.13-.12.05-.23.1-.34.16-.12.06-.24.11-.36.17-.11.06-.21.12-.32.19-.11.07-.23.13-.34.21-.12.08-.23.16-.34.25-.09.07-.19.13-.28.21-.2.16-.39.34-.57.52l-39.26 39.26c-3.05 3.05-3.37 8.07-.4 11.19s8.12 3.26 11.23.15l26.14-26.14V896.8c0 4.5 3.79 8.12 8.36 7.82 4.17-.27 7.32-3.91 7.32-8.09zM1425.67 1538.91v190.69l-28.48-28.48c-3.12-3.12-8.41-3.3-11.46-.1-1.44 1.51-2.16 3.46-2.16 5.4s.77 4.01 2.3 5.54l41.39 41.39a7.821 7.821 0 0 0 5.89 2.28c.37.02.75.01 1.12-.02.12-.01.23-.03.34-.05l.41-.06.39-.09.36-.09c.13-.04.25-.09.37-.13.12-.04.24-.08.35-.13.12-.05.23-.1.34-.16.12-.06.24-.11.36-.17.11-.06.21-.12.32-.19.11-.07.23-.13.34-.21.12-.08.23-.16.34-.25.09-.07.19-.13.28-.21.2-.16.39-.34.57-.52l39.26-39.26c3.05-3.05 3.37-8.07.4-11.19s-8.12-3.26-11.23-.15l-26.14 26.14v-190.26c0-4.5-3.79-8.12-8.36-7.82-4.17.27-7.32 3.91-7.32 8.09z"/><path class="cls-22" d="M1441.5 1540.11v-64.14l28.48 28.48c3.12 3.12 8.41 3.3 11.46.1 1.44-1.51 2.16-3.46 2.16-5.4s-.77-4.01-2.3-5.54l-41.39-41.39a7.821 7.821 0 0 0-5.89-2.28c-.37-.02-.75-.01-1.12.02-.12.01-.23.03-.34.05l-.41.06-.39.09-.36.09c-.13.04-.25.09-.37.13-.12.04-.24.08-.35.13-.12.05-.23.1-.34.16-.12.06-.24.11-.36.17-.11.06-.21.12-.32.19-.11.07-.23.13-.34.21-.12.08-.23.16-.34.25-.09.07-.19.13-.28.21-.2.16-.39.34-.57.52l-39.26 39.26c-3.05 3.05-3.37 8.07-.4 11.19s8.12 3.26 11.23.15l26.14-26.14v63.71c0 4.5 3.79 8.12 8.36 7.82 4.17-.27 7.32-3.91 7.32-8.09zM1419.52 1833.53h213.54c4.5 0 8.12-3.79 7.82-8.36-.27-4.17-3.91-7.32-8.09-7.32h-213.98"/><path class="cls-22" d="M1576.52 1817.86h-322.95c-4.5 0-8.12 3.79-7.82 8.36.27 4.17 3.91 7.32 8.09 7.32h323.39"/></g></svg>